<svg xmlns="http://www.w3.org/2000/svg" xmlns:xlink="http://www.w3.org/1999/xlink" width="20.343" height="20.343" viewBox="0 0 20.343 20.343">
  <defs>
    <clipPath id="clip-path">
      <rect id="Rectangle_118" data-name="Rectangle 118" width="20.343" height="20.343" fill="#1ad779"/>
    </clipPath>
  </defs>
  <g id="Group_173" data-name="Group 173" transform="translate(0)">
    <g id="Group_134" data-name="Group 134" transform="translate(0)" clip-path="url(#clip-path)">
      <path id="Path_151" data-name="Path 151" d="M18.153,7.629H10.172V5.086A5.086,5.086,0,0,0,0,5.086V7.661a.817.817,0,0,0,.816.816h.911a.817.817,0,0,0,.816-.816V5.086a2.543,2.543,0,0,1,5.086,0V7.629H7.276a2.193,2.193,0,0,0-2.19,2.19v8.334a2.193,2.193,0,0,0,2.19,2.19H18.153a2.193,2.193,0,0,0,2.19-2.19V9.819a2.193,2.193,0,0,0-2.19-2.19M5.086,1.7A3.394,3.394,0,0,0,1.7,5.086V7.629H.848V5.086a4.238,4.238,0,0,1,8.476,0V7.629H8.476V5.086A3.394,3.394,0,0,0,5.086,1.7M19.5,18.153A1.344,1.344,0,0,1,18.153,19.5H7.276a1.344,1.344,0,0,1-1.342-1.342V9.819A1.344,1.344,0,0,1,7.276,8.476H18.153A1.344,1.344,0,0,1,19.5,9.819Z" fill="#1ad779"/>
      <path id="Path_152" data-name="Path 152" d="M317.119,327.6A2.122,2.122,0,0,0,315,329.719a1.437,1.437,0,0,0,.424,1.023l.424.424v1.1a1.271,1.271,0,0,0,2.543,0v-1.1l.424-.424a1.437,1.437,0,0,0,.424-1.023,2.122,2.122,0,0,0-2.119-2.119m1.1,2.543-.672.672v1.447a.424.424,0,0,1-.848,0v-1.447l-.672-.672a.6.6,0,0,1-.175-.424,1.271,1.271,0,0,1,2.543,0,.6.6,0,0,1-.176.424" transform="translate(-304.404 -316.581)" fill="#1ad779"/>
    </g>
  </g>
</svg>
