<svg xmlns="http://www.w3.org/2000/svg" xmlns:xlink="http://www.w3.org/1999/xlink" width="23" height="20.971" viewBox="0 0 23 20.971">
  <defs>
    <clipPath id="clip-path">
      <rect id="Rectangle_120" data-name="Rectangle 120" width="23" height="20.971" fill="none" stroke="#1ad779" stroke-width="1"/>
    </clipPath>
  </defs>
  <g id="Group_175" data-name="Group 175" transform="translate(0)">
    <g id="Group_138" data-name="Group 138" transform="translate(0 0)" clip-path="url(#clip-path)">
      <path id="Path_161" data-name="Path 161" d="M15.765,18.672H.5V.5H23.034V18.672H19.4" transform="translate(-0.017 -0.394)" fill="none" stroke="#1ad779" stroke-linecap="round" stroke-linejoin="round" stroke-width="1"/>
      <path id="Path_162" data-name="Path 162" d="M22.126,13.767V4.681A2.181,2.181,0,0,1,19.945,2.5H4.681A2.181,2.181,0,0,1,2.5,4.681v10.9a2.181,2.181,0,0,1,2.181,2.181h11.63" transform="translate(-0.563 -0.94)" fill="none" stroke="#1ad779" stroke-linecap="round" stroke-linejoin="round" stroke-width="1"/>
      <path id="Path_163" data-name="Path 163" d="M25.134,22.9V26.97l-1.817-1.454L21.5,26.97V22.9" transform="translate(-5.752 -6.511)" fill="none" stroke="#1ad779" stroke-linecap="round" stroke-linejoin="round" stroke-width="1"/>
      <ellipse id="Ellipse_27" data-name="Ellipse 27" cx="3.998" cy="3.998" rx="3.998" ry="3.998" transform="translate(13.567 8.829)" fill="none" stroke="#1ad779" stroke-linecap="round" stroke-linejoin="round" stroke-width="1"/>
      <ellipse id="Ellipse_28" data-name="Ellipse 28" cx="2.544" cy="2.544" rx="2.544" ry="2.544" transform="translate(15.021 10.283)" fill="none" stroke="#1ad779" stroke-linecap="round" stroke-linejoin="round" stroke-width="1"/>
      <line id="Line_60" data-name="Line 60" x2="7.996" transform="translate(7.752 3.741)" fill="none" stroke="#1ad779" stroke-linecap="round" stroke-linejoin="round" stroke-width="1"/>
      <line id="Line_61" data-name="Line 61" x2="7.996" transform="translate(7.752 6.648)" fill="none" stroke="#1ad779" stroke-linecap="round" stroke-linejoin="round" stroke-width="1"/>
      <line id="Line_62" data-name="Line 62" x2="12.357" transform="translate(5.571 5.195)" fill="none" stroke="#1ad779" stroke-linecap="round" stroke-linejoin="round" stroke-width="1"/>
      <line id="Line_63" data-name="Line 63" x2="1.454" transform="translate(5.571 13.917)" fill="none" stroke="#1ad779" stroke-linecap="round" stroke-linejoin="round" stroke-width="1"/>
      <line id="Line_64" data-name="Line 64" x2="2.908" transform="translate(5.571 15.371)" fill="none" stroke="#1ad779" stroke-linecap="round" stroke-linejoin="round" stroke-width="1"/>
    </g>
  </g>
</svg>
