<svg xmlns="http://www.w3.org/2000/svg" xmlns:xlink="http://www.w3.org/1999/xlink" width="18.134" height="21.959" viewBox="0 0 18.134 21.959">
  <defs>
    <clipPath id="clip-path">
      <rect id="Rectangle_119" data-name="Rectangle 119" width="18.134" height="21.959" fill="#013317"/>
    </clipPath>
  </defs>
  <g id="Group_174" data-name="Group 174" transform="translate(0)">
    <g id="Group_136" data-name="Group 136" transform="translate(0 0)" clip-path="url(#clip-path)">
      <path id="Path_153" data-name="Path 153" d="M2738.641,4.754l-.245-.212-.373-.324L2734.01.744l-.431-.374-.326-.282a.374.374,0,0,0-.619.282V4.316a1.094,1.094,0,0,0,1.094,1.095h4.667a.373.373,0,0,0,.35-.243.378.378,0,0,0,.023-.13.372.372,0,0,0-.129-.283m-5.259-.535V1.188l4.012,3.475h-3.568a.444.444,0,0,1-.444-.444" transform="translate(-2720.635 0.003)" fill="#013317"/>
      <path id="Path_154" data-name="Path 154" d="M557.207,1.912A1.167,1.167,0,0,1,558.375.744h9.017L566.96.371l-.326-.282A.373.373,0,0,0,566.389,0h-8.152a1.778,1.778,0,0,0-1.778,1.778V4.136h.747Z" transform="translate(-554.017 0.003)" fill="#013317"/>
      <path id="Path_155" data-name="Path 155" d="M499.446,1407.126a2.845,2.845,0,0,0-.426-.02h-.286v.832h.324a1.526,1.526,0,0,0,.468-.046.388.388,0,0,0,.185-.144.394.394,0,0,0,.067-.228.378.378,0,0,0-.094-.264.41.41,0,0,0-.238-.13" transform="translate(-496.545 -1400.927)" fill="#013317"/>
      <path id="Path_156" data-name="Path 156" d="M0,1067.556H10.9v-4.964H0Zm3.745-2.592a.8.8,0,0,1-.249.289.857.857,0,0,1-.307.139,3.38,3.38,0,0,1-.614.042H2.19v1.105H1.6v-2.93h.949a3.436,3.436,0,0,1,.7.044.768.768,0,0,1,.422.287.909.909,0,0,1,.17.571.957.957,0,0,1-.1.454m2.948.761a1.292,1.292,0,0,1-.314.518,1.039,1.039,0,0,1-.416.234,1.787,1.787,0,0,1-.524.062H4.327v-2.93H5.408a2.115,2.115,0,0,1,.558.056.98.98,0,0,1,.442.27,1.28,1.28,0,0,1,.28.474,2.165,2.165,0,0,1,.1.693,1.924,1.924,0,0,1-.09.623m2.6-1.621H7.88v.694H9.1v.5H7.88v1.245H7.289v-2.93H9.3Z" transform="translate(0 -1057.926)" fill="#013317"/>
      <path id="Path_157" data-name="Path 157" d="M1121.089,1407.272a.565.565,0,0,0-.274-.138,2.693,2.693,0,0,0-.486-.028h-.266v1.941h.442a1.613,1.613,0,0,0,.358-.028.545.545,0,0,0,.239-.122.621.621,0,0,0,.155-.283,1.906,1.906,0,0,0,.06-.537,1.745,1.745,0,0,0-.06-.522.67.67,0,0,0-.168-.284" transform="translate(-1115.146 -1400.927)" fill="#013317"/>
      <path id="Path_158" data-name="Path 158" d="M2004.257,3016.691a.1.1,0,0,0,.151,0l3.108-3.292a.1.1,0,0,0-.075-.175h-1.208v-5.147a.1.1,0,0,0-.1-.1h-3.593a.1.1,0,0,0-.1.1v5.147h-1.208a.1.1,0,0,0-.075.175Z" transform="translate(-1992.333 -2994.765)" fill="#013317"/>
      <path id="Path_159" data-name="Path 159" d="M563.278,2322.868h-4.9a1.167,1.167,0,0,1-1.167-1.167v-8.55h-.747v8.687a1.778,1.778,0,0,0,1.778,1.778h5.747Z" transform="translate(-554.016 -2302.993)" fill="#013317"/>
      <path id="Path_160" data-name="Path 160" d="M3199.215,961.968l-.245-.212-.374-.323v14.485a1.167,1.167,0,0,1-1.167,1.167h-1.484l-.705.747h2.326a1.778,1.778,0,0,0,1.778-1.778v-13.8a.373.373,0,0,0-.129-.283" transform="translate(-3181.21 -957.211)" fill="#013317"/>
    </g>
  </g>
</svg>
